HIERARCHY
ROOT root
{
	OFFSET	0	13.1	24.9
	CHANNELS 6  Xposition Yposition Zposition Xrotation Yrotation Zrotation
	JOINT spine_1
	{
		OFFSET	0	9.99999	0
		CHANNELS 3  Xrotation Yrotation Zrotation
		JOINT spine_2
		{
			OFFSET	0	112	-10
			CHANNELS 3  Xrotation Yrotation Zrotation
			JOINT spine_3
			{
				OFFSET	0	206.5	19.3
				CHANNELS 3  Xrotation Yrotation Zrotation
				JOINT spine_4
				{
					OFFSET	0	110.4	14.6
					CHANNELS 3  Xrotation Yrotation Zrotation
					JOINT neck_1
					{
						OFFSET	0	71.8	-50.3
						CHANNELS 3  Xrotation Yrotation Zrotation
						JOINT neck_2
						{
							OFFSET	0	86.2	-25.8
							CHANNELS 3  Xrotation Yrotation Zrotation
							JOINT head_ee
							{
								OFFSET	0	179.8	-8.7
								CHANNELS 3  Xrotation Yrotation Zrotation
								End Site
								{
									OFFSET	1	0	0
								}
							}
						}
					}
					JOINT left_clavicle
					{
						OFFSET	-43.2	22.4	-70.8
						CHANNELS 3  Xrotation Yrotation Zrotation
						JOINT left_shoulder
						{
							OFFSET	-93.9	-5.79999	48.7
							CHANNELS 3  Xrotation Yrotation Zrotation
							JOINT left_elbow
							{
								OFFSET	-291.4	-30.8	15.2
								CHANNELS 3  Xrotation Yrotation Zrotation
								JOINT left_lowarm_twist
								{
									OFFSET	-110.7	-3.89999	13.6
									CHANNELS 3  Xrotation Yrotation Zrotation
									JOINT left_hand
									{
										OFFSET	-110.7	-3.89999	13.6
										CHANNELS 3  Xrotation Yrotation Zrotation
										JOINT left_ee
										{
											OFFSET	-80.8	-5.10001	12.1
											CHANNELS 3  Xrotation Yrotation Zrotation
											End Site
											{
												OFFSET	1	0	0
											}
										}
									}
								}
							}
						}
					}
					JOINT right_clavicle
					{
						OFFSET	43.2	22.4	-70.8
						CHANNELS 3  Xrotation Yrotation Zrotation
						JOINT right_shoulder
						{
							OFFSET	93.9	-5.79999	48.7
							CHANNELS 3  Xrotation Yrotation Zrotation
							JOINT right_elbow
							{
								OFFSET	291.4	-30.8	15.2
								CHANNELS 3  Xrotation Yrotation Zrotation
								JOINT right_lowarm_twist
								{
									OFFSET	110.7	-3.89999	13.6
									CHANNELS 3  Xrotation Yrotation Zrotation
									JOINT right_hand
									{
										OFFSET	110.7	-3.89999	13.6
										CHANNELS 3  Xrotation Yrotation Zrotation
										JOINT right_ee
										{
											OFFSET	80.8	-5.10001	12.1
											CHANNELS 3  Xrotation Yrotation Zrotation
											End Site
											{
												OFFSET	1	0	0
											}
										}
									}
								}
							}
						}
					}
				}
			}
		}
	}
	JOINT left_hip
	{
		OFFSET	-82.8	-127.5	0.300001
		CHANNELS 3  Xrotation Yrotation Zrotation
		JOINT left_knee
		{
			OFFSET	-28.2	-396.7	2.2
			CHANNELS 3  Xrotation Yrotation Zrotation
			JOINT left_ankle
			{
				OFFSET	-11.7	-411.3	35.4
				CHANNELS 3  Xrotation Yrotation Zrotation
				JOINT left_toes
				{
					OFFSET	0	-60	-88.6
					CHANNELS 3  Xrotation Yrotation Zrotation
					JOINT left_foot_ee
					{
						OFFSET	-22.5	-16.5	-42.2
						CHANNELS 3  Xrotation Yrotation Zrotation
						End Site
						{
							OFFSET	1	0	0
						}
					}
				}
			}
		}
	}
	JOINT right_hip
	{
		OFFSET	82.8	-127.5	0.300001
		CHANNELS 3  Xrotation Yrotation Zrotation
		JOINT right_knee
		{
			OFFSET	28.2	-396.7	2.2
			CHANNELS 3  Xrotation Yrotation Zrotation
			JOINT right_ankle
			{
				OFFSET	11.7	-411.3	35.4
				CHANNELS 3  Xrotation Yrotation Zrotation
				JOINT right_toes
				{
					OFFSET	0	-60	-88.6
					CHANNELS 3  Xrotation Yrotation Zrotation
					JOINT right_foot_ee
					{
						OFFSET	22.5	-16.5	-42.2
						CHANNELS 3  Xrotation Yrotation Zrotation
						End Site
						{
							OFFSET	1	0	0
						}
					}
				}
			}
		}
	}
}
MOTION
Frames: 14
Frame Time: 0.02
2772.89764441 714.066 -1672.51333876 7.78955350459 66.213779708 -11.3441344367 1.16656 0.542031 3.63898 1.17387 0.309534 3.66605 1.19517 -0.391997 3.65816 1.17655 0.190258 3.67416 -11.6175 13.6059 -8.88843 -11.9021 31.4799 -4.69181 -0.0 0.0 -0.0 -10.5417 16.8791 -14.9739 19.0453 -23.2049 75.6425 1.94588 -43.9432 0.785129 -26.1793 -1.61508 2.90216 1.01683 14.4443 12.3432 -0.0 0.0 -0.0 8.4907 4.9022 -16.6331 -25.8091 36.0534 -69.9225 0.781916 21.1732 -0.146144 -56.6709 4.87187 -4.98553 -4.20528 -25.4113 13.7092 0.0 0.0 0.0 2.08153 6.3448 3.83676 -20.0797 0.294683 3.05155 41.0854 12.5844 -4.99576 -25.7198 0.0 0.0 -0.0 0.0 -0.0 6.43799 22.6027 -3.23869 -46.3831 0.921958 -6.86766 19.2441 -18.3304 2.68705 -9.68286 0.0 0.0 0.0 0.0 0.0 
2768.21295849 719.579 -1636.94824815 6.07867522723 71.3767040472 -9.71088298514 1.11234 0.576111 3.63479 1.11962 0.343811 3.66403 1.14325 -0.361214 3.66236 1.1246 0.221318 3.67345 -13.5801 13.3577 -9.95312 -14.0614 31.5318 -5.18276 -0.0 0.0 -0.0 -10.5918 17.439 -14.8242 20.2007 -23.3725 74.3844 2.07909 -45.839 0.879154 -26.6825 -1.65859 2.94977 1.07115 14.1235 12.5768 -0.0 0.0 -0.0 8.06883 3.91977 -15.7572 -26.3859 36.0715 -69.8847 0.777175 21.0561 -0.144437 -56.8149 4.8895 -4.99103 -4.14769 -24.7727 13.7879 0.0 0.0 0.0 0.943503 7.47025 3.86096 -16.6748 0.320407 2.52983 38.9715 12.1512 -4.80378 -25.2589 0.0 0.0 -0.0 0.0 -0.0 13.5821 22.8866 -4.82776 -43.8427 0.729158 -6.52766 14.6945 -18.6478 2.0915 -11.2671 0.0 0.0 0.0 0.0 0.0 
2757.46061221 721.335 -1593.10989026 7.13420495919 76.0478641239 -11.1074849406 1.24229 0.508614 3.72814 1.24998 0.270523 3.7529 1.26905 -0.442074 3.7366 1.2496 0.153169 3.75951 -14.9459 14.0055 -8.65031 -15.7119 31.8605 -3.25036 -0.0 0.0 -0.0 -10.4495 16.4107 -15.0091 22.3181 -23.209 74.1876 1.9646 -44.2171 0.798148 -26.6794 -1.65832 2.94948 0.899584 14.9475 11.7758 -0.0 0.0 -0.0 7.82656 2.05569 -15.2576 -27.2442 36.0589 -69.5986 0.765371 20.7638 -0.140224 -57.1002 4.92448 -5.00179 -4.19949 -24.7421 14.1116 0.0 0.0 0.0 -0.570944 8.81995 4.47007 -17.6639 0.316131 2.68153 39.44 16.9218 -4.91352 -24.9174 0.0 0.0 -0.0 0.0 -0.0 16.1936 25.9781 -7.21425 -43.6418 0.714558 -6.50041 13.2164 -19.6457 1.898 -11.6961 0.0 0.0 0.0 0.0 0.0 
2744.40004221 724.203 -1566.27582124 7.41196575606 78.6250808515 -10.993948974 1.23053 0.444743 3.7652 1.23839 0.204428 3.78583 1.25321 -0.514386 3.75633 1.23354 0.0848702 3.79039 -16.0281 14.5968 -8.04372 -17.0309 32.5467 -2.07818 -0.0 0.0 -0.0 -10.2186 15.8238 -14.8463 24.1469 -22.8909 73.485 1.9861 -44.5287 0.813183 -26.5165 -1.64419 2.9341 0.735343 14.3766 10.5263 -0.0 0.0 -0.0 7.63963 0.759923 -14.8722 -28.1253 36.0219 -69.3842 0.687692 18.8121 -0.113923 -57.1608 4.93192 -5.00405 -4.10784 -23.8317 14.1593 0.0 0.0 0.0 -2.07137 9.652 4.83598 -15.3727 0.322044 2.33006 37.295 17.3832 -4.71963 -26.0686 0.0 0.0 -0.0 0.0 -0.0 21.3068 22.1197 -7.80458 -43.4775 0.702693 -6.4781 13.2484 -16.9517 1.88568 -11.9738 0.0 0.0 0.0 0.0 0.0 
2732.50564683 719.364 -1554.02809855 1.45094349514 78.5714796102 -4.61555552794 1.33064 0.426299 3.68994 1.33819 0.190799 3.70956 1.35159 -0.507032 3.67973 1.33271 0.0800613 3.71359 -17.6278 14.6537 -9.09788 -18.8566 33.0834 -2.51763 -0.0 0.0 -0.0 -9.61889 14.8236 -14.1864 27.0987 -22.6533 70.5934 2.15453 -46.8583 0.933738 -26.2891 -1.62454 2.91258 0.408473 14.0104 8.3206 -0.0 0.0 -0.0 7.79915 -0.999353 -15.1686 -29.2261 36.132 -67.2209 0.610973 16.839 -0.090434 -56.687 4.87385 -4.98615 -4.04454 -22.9293 14.3582 0.0 0.0 0.0 -4.43485 10.5861 5.17386 -9.90466 0.279383 1.49249 36.3309 16.9191 -4.61792 -27.3949 0.0 0.0 -0.0 0.0 -0.0 29.5279 20.6348 -10.0442 -42.2695 0.617427 -6.31303 13.4289 -16.0176 1.90529 -11.1253 0.0 0.0 0.0 0.0 0.0 
2733.35763503 719.364 -1550.79096199 1.50525407244 78.98899055 -4.67092394052 1.33064 0.426299 3.68994 1.33819 0.190799 3.70956 1.35159 -0.507032 3.67973 1.33271 0.0800613 3.71359 -17.6278 14.6537 -9.09788 -18.8566 33.0834 -2.51763 -0.0 0.0 -0.0 -9.61889 14.8236 -14.1864 27.0987 -22.6533 70.5934 2.15453 -46.8583 0.933738 -26.2891 -1.62454 2.91258 0.408473 14.0104 8.3206 -0.0 0.0 -0.0 7.79915 -0.999353 -15.1686 -29.2261 36.132 -67.2209 0.610973 16.839 -0.090434 -56.687 4.87385 -4.98615 -4.04454 -22.9293 14.3582 0.0 0.0 0.0 -4.43485 10.5861 5.17386 -9.90466 0.279383 1.49249 36.3309 16.9191 -4.61792 -27.3949 0.0 0.0 -0.0 0.0 -0.0 29.5279 20.6348 -10.0442 -42.2695 0.617427 -6.31303 13.4289 -16.0176 1.90529 -11.1253 0.0 0.0 0.0 0.0 0.0 
2719.52438959 715.415 -1544.85497538 2.97211695445 79.612198849 -5.90429597763 1.32559 0.370512 3.56875 1.33266 0.142822 3.58506 1.34254 -0.531458 3.54838 1.32497 0.0352367 3.58773 -18.128 14.9154 -8.87311 -19.4792 33.4041 -2.01495 -0.0 0.0 -0.0 -9.31975 14.5095 -13.778 28.0868 -22.6968 69.8264 2.22717 -47.8046 0.987152 -26.2124 -1.61793 2.9053 0.428464 13.9471 8.42285 -0.0 0.0 -0.0 7.65962 -1.84366 -14.8771 -29.8193 35.4922 -66.8766 0.584334 16.1439 -0.0828718 -56.5441 4.85636 -4.98066 -4.03788 -22.8775 14.3511 0.0 0.0 0.0 -5.75479 10.8014 5.46116 -8.85427 0.262046 1.33224 36.0948 19.4035 -4.63953 -27.4893 0.0 0.0 -0.0 0.0 -0.0 32.4719 19.3309 -10.1661 -41.2752 0.549884 -6.17586 13.3715 -15.6399 1.89575 -10.9716 0.0 0.0 0.0 0.0 0.0 
2720.10844069 715.415 -1542.72722558 3.04953202776 79.8784754342 -5.98296752408 1.32559 0.370512 3.56875 1.33266 0.142822 3.58506 1.34254 -0.531458 3.54838 1.32497 0.0352367 3.58773 -18.128 14.9154 -8.87311 -19.4792 33.4041 -2.01495 -0.0 0.0 -0.0 -9.31975 14.5095 -13.778 28.0868 -22.6968 69.8264 2.22717 -47.8046 0.987152 -26.2124 -1.61793 2.9053 0.428464 13.9471 8.42285 -0.0 0.0 -0.0 7.65962 -1.84366 -14.8771 -29.8193 35.4922 -66.8766 0.584334 16.1439 -0.0828718 -56.5441 4.85636 -4.98066 -4.03788 -22.8775 14.3511 0.0 0.0 0.0 -5.75479 10.8014 5.46116 -8.85427 0.262046 1.33224 36.0948 19.4035 -4.63953 -27.4893 0.0 0.0 -0.0 0.0 -0.0 32.4719 19.3309 -10.1661 -41.2752 0.549884 -6.17586 13.3715 -15.6399 1.89575 -10.9716 0.0 0.0 0.0 0.0 0.0 
2708.37150327 711.161 -1542.25176081 1.43497023286 78.748277664 -4.1078214264 1.30156 0.359127 3.48626 1.30831 0.136699 3.50202 1.3176 -0.5234 3.46543 1.30085 0.0301183 3.50455 -18.4747 14.8638 -9.33992 -19.864 33.5113 -2.36172 -0.0 0.0 -0.0 -9.05711 14.2159 -13.4232 29.375 -22.5406 68.7509 2.27686 -48.4327 1.02415 -26.2049 -1.61729 2.90459 0.308336 13.7656 7.59471 -0.0 0.0 -0.0 7.77758 -2.00108 -15.1058 -30.4706 35.244 -66.418 0.525182 14.583 -0.0671984 -56.416 4.8407 -4.9757 -4.00839 -22.6292 14.3313 0.0 0.0 0.0 -6.94567 10.9126 5.84301 -7.35472 0.23221 1.10407 35.6878 18.754 -4.58615 -27.8914 0.0 0.0 -0.0 0.0 -0.0 34.5712 18.3093 -10.4372 -38.9232 0.399685 -5.84695 13.4674 -15.1754 1.90659 -10.8934 0.0 0.0 0.0 0.0 0.0 
2686.84068734 707.914 -1540.03950818 -3.21839859185 77.2387029239 0.185853586916 1.29878 0.294815 3.46403 1.30545 0.0739284 3.47576 1.31079 -0.58063 3.42777 1.2944 -0.0323318 3.47639 -17.0369 14.3522 -10.6215 -18.1131 33.4178 -4.28566 -0.0 0.0 -0.0 -7.92004 13.4726 -11.6847 30.4031 -22.1741 68.2044 2.37331 -49.6088 1.09697 -26.8648 -1.67445 2.96692 -0.134058 14.1768 4.9763 -0.0 0.0 -0.0 8.01587 -2.80005 -15.5525 -32.2435 34.9013 -64.2171 0.449436 12.5517 -0.0494267 -55.9722 4.78652 -4.95824 -4.03846 -21.7472 15.071 0.0 0.0 0.0 -8.56943 11.2499 7.87863 -2.03987 0.0785993 0.303167 36.2335 16.9972 -4.60963 -29.163 0.0 0.0 -0.0 0.0 -0.0 35.0152 18.1772 -10.1078 -23.5798 -0.235985 -3.58534 7.17532 -19.6464 1.05085 -12.7185 0.0 0.0 0.0 0.0 0.0 
2671.1428667 703.051 -1540.33633505 -6.08491913371 75.7962369714 3.01263817148 1.32606 0.516115 3.35219 1.33226 0.301886 3.3782 1.35108 -0.3356 3.37502 1.33524 0.201318 3.38567 -15.9768 13.9881 -11.424 -16.8243 33.3217 -5.56167 -0.0 0.0 -0.0 -7.44439 13.505 -10.8467 31.0502 -22.2808 68.0159 2.57419 -51.8877 1.25255 -27.7446 -1.7518 3.04901 -0.310025 14.0631 3.82984 -0.0 0.0 -0.0 8.05888 -2.58143 -15.6434 -33.1615 34.6766 -63.6674 0.352565 9.907 -0.0305572 -55.1161 4.68238 -4.92337 -3.98314 -20.5672 15.4746 0.0 0.0 0.0 -9.34419 10.8436 8.84322 0.29423 -0.0122273 -0.0434962 36.0738 16.451 -4.58522 -30.0304 0.0 0.0 -0.0 0.0 -0.0 34.9173 17.7437 -9.95421 -11.1437 -0.296052 -1.68187 3.19477 -20.5379 0.474568 -13.8594 0.0 0.0 0.0 0.0 0.0 
2654.17685747 699.942 -1542.30987082 -9.24777595271 74.946498238 5.91362603176 1.30317 0.564792 3.27359 1.30906 0.355457 3.30285 1.33063 -0.26995 3.31093 1.31542 0.256043 3.31203 -15.3119 13.626 -12.3583 -15.9802 33.2692 -6.83134 -0.0 0.0 -0.0 -7.20366 13.0039 -10.5824 31.3321 -22.3008 68.1102 2.73532 -53.5626 1.38078 -28.2898 -1.80035 3.09928 -0.533198 14.1093 2.45535 -0.0 0.0 -0.0 8.35215 -2.55505 -16.2213 -33.8432 34.2136 -62.8821 0.250206 7.06565 -0.0154472 -54.4107 4.59696 -4.89347 -3.924 -19.9613 15.4861 0.0 0.0 0.0 -10.6438 10.6513 10.4866 3.44557 -0.157146 -0.505245 36.6337 14.9335 -4.61791 -30.3976 0.0 0.0 -0.0 0.0 -0.0 35.5571 17.728 -10.0435 -3.71156 -0.134924 -0.553531 0.149533 -22.0607 0.0225111 -14.7666 0.0 0.0 0.0 0.0 0.0 
2635.81733679 694.927 -1544.67883545 -8.29795841754 73.7316661635 4.19811037475 1.20984 0.656703 3.36135 1.21602 0.441607 3.39627 1.24357 -0.20791 3.41852 1.22742 0.334269 3.4085 -15.5763 13.8089 -14.3305 -16.2297 34.7217 -8.56722 -0.0 0.0 -0.0 -7.07899 14.4918 -9.91643 31.8044 -22.4398 69.3554 3.14926 -57.3275 1.72189 -30.3897 -1.99181 3.28857 -0.68343 13.4877 1.25427 -0.0 0.0 -0.0 8.55585 -1.7236 -16.6541 -34.4355 34.3089 -61.8818 0.212822 6.01837 -0.0111877 -54.2632 4.57915 -4.88709 -3.77421 -18.7535 15.2926 0.0 0.0 0.0 -9.6098 10.7462 11.0736 -2.57645 0.0974747 0.383352 40.6749 13.9886 -4.97796 -29.0395 0.0 0.0 -0.0 0.0 -0.0 35.7159 18.1979 -9.04239 -0.837322 -0.0335706 -0.124111 -2.66867 -19.9869 -0.40089 -15.8616 0.0 0.0 0.0 0.0 0.0 
2612.46534207 686.082 -1553.1219876 -7.12195704177 72.5947316669 2.96349223049 1.05363 0.744807 3.30156 1.05953 0.533331 3.3422 1.09236 -0.116391 3.38244 1.07664 0.418956 3.35844 -15.2948 14.886 -15.0469 -16.0452 37.2331 -8.9042 -0.0 0.0 -0.0 -7.91186 16.131 -10.7956 30.9711 -24.3114 70.0375 3.69328 -61.3236 2.19008 -28.684 -1.83576 3.13534 -0.988993 14.4826 -0.222462 -0.0 0.0 -0.0 8.79044 -0.603196 -17.1621 -34.4318 33.8425 -61.9271 0.202781 5.73636 -0.0101595 -53.5687 4.49549 -4.85641 -3.56353 -19.3457 13.627 0.0 0.0 0.0 -10.3397 5.87742 10.4088 -6.12843 0.203377 0.918099 42.0748 14.2918 -5.10331 -27.1266 0.0 0.0 -0.0 0.0 -0.0 35.5213 18.4515 -8.34159 1.17979 0.0503773 0.174031 -3.01556 -16.3849 -0.448479 -14.3689 0.0 0.0 0.0 0.0 0.0 
